<svg id="emY46gH2fEi1" xmlns="http://www.w3.org/2000/svg" xmlns:xlink="http://www.w3.org/1999/xlink" viewBox="0 0 1920 1080" shape-rendering="geometricPrecision" text-rendering="geometricPrecision" project-id="24e5321f96a74f3c8cddd7ad7f416ee5" export-id="280b55aae7574ca88f14eb3eee28336f" cached="false"><path d="M593.475892,-187.153433v187.153433q6.430358,360.300952,331.163399,0" transform="translate(.000001 0)" fill="none" stroke="#a78d66" stroke-width="0.2"/><path d="M924.639292,0l18.172824-187.153433" transform="translate(0 0.000001)" fill="none" stroke="#a78d66" stroke-width="0.2"/><path d="M1224.322744,-187.153432Q595.744217,641.953212,487.767538,302.597934c-39.130445-122.981399-76.347704-191.477561-115.689301-185.102881-69.217736,11.215633-116.388057,77.824957-119.545609,80.982509s-134.970848,104.12037-115.689299-65.557269q19.281549-169.677639-285.366938-289.223247" transform="translate(.000002 0.000002)" fill="none" stroke="#a78d66" stroke-width="0.2"/><path d="M-217.937187,-156.302952Q382.96683,761.49882,593.475893,688.228931c210.509063-73.269889,372.474083-50.132029,314.629433,215.953359q-57.84465,266.085388,269.941698,0q439.619337-389.487307,323.930038,84.83882c-115.689299,474.326127,293.810031-200.528119,340.085751-366.349448s357.906354,239.091218,114.958826,439.619337s308.504799-1793.18414-235.234908-1172.318233-435.763027,293.079559-458.900887,80.98251" fill="none" stroke="#a78d66" stroke-width="0.2"/><path d="M-217.937187,-156.302952Q382.96683,761.49882,593.475893,688.228931c210.509063-73.269889,372.474083-50.132029,314.629433,215.953359q-57.84465,266.085388,269.941698,0q439.619337-389.487307,323.930038,84.83882c-115.689299,474.326127,293.810031-200.528119,340.085751-366.349448s357.906354,239.091218,114.958826,439.619337s308.504799-1793.18414-235.234908-1172.318233-559.999138-396.334473-583.136998-608.431522q-23.13786-212.097048,1569.314027,288.431522" transform="translate(-160 320)" fill="none" stroke="#a78d66" stroke-width="0.2"/><path d="M-217.937187,-156.302952Q382.96683,761.49882,593.475893,688.228931c210.509063-73.269889,372.474083-50.132029,314.629433,215.953359q-57.84465,266.085388,269.941698,0q439.619337-389.487307,323.930038,84.83882c-115.689299,474.326127,572.889227-464.19978,619.164947-630.021109s78.827158,502.762879-164.12037,703.290998" transform="translate(-60 181)" fill="none" stroke="#a78d66" stroke-width="0.2"/><path d="M-560.621,-30.787977Q382.96683,761.49882,593.475893,688.228931c210.509063-73.269889,372.474083-50.132029,314.629433,215.953359q-57.84465,266.085388,269.941698,0q439.619337-389.487307,323.930038,84.83882c-115.689299,474.326127,572.889227-464.19978,619.164947-630.021109s78.827158,502.762879-164.12037,703.290998" transform="translate(80-199)" fill="none" stroke="#a78d66" stroke-width="0.2"/><path d="M-217.937187,-156.302952Q382.96683,761.49882,593.475893,688.228931c210.509063-73.269889,372.474083-50.132029,314.629433,215.953359q-57.84465,266.085388,269.941698,0q439.619337-389.487307,323.930038,84.83882c-115.689299,474.326127,131.114539,96.407749,177.390259-69.41358s520.601846-57.84465,277.654318,142.683469" transform="matrix(-1 0 0-1 1572.125626 2066.394096)" fill="none" stroke="#a78d66" stroke-width="0.2"/><path d="M-217.937187,-156.302952Q382.96683,761.49882,593.475893,688.228931c210.509063-73.269889,372.474083-50.132029,314.629433,215.953359q-57.84465,266.085388,269.941698,0q439.619337-389.487307,323.930038,84.83882c-115.689299,474.326127,131.114539,96.407749,177.390259-69.41358s520.601846-57.84465,277.654318,142.683469" transform="matrix(-1 0 0-1 1624.125626 1908.394096)" fill="none" stroke="#a78d66" stroke-width="0.2"/></svg>
